<svg width="24" height="24" viewBox="0 0 24 24" fill="none" xmlns="http://www.w3.org/2000/svg">
<circle cx="12" cy="12" r="12" fill="#FFEEE4"/>
<g clip-path="url(#clip0_60_328)">
<path d="M7.82085 12.5453H7.01337C6.88221 12.5453 6.77588 12.439 6.77588 12.3078V10.7112C6.77588 10.5801 6.88221 10.4738 7.01337 10.4738H10.4333M7.82085 12.5453V16.4509C7.82085 16.5821 7.92719 16.6884 8.05835 16.6884H12.0008M7.82085 12.5453H12.0008M10.4333 10.4738H13.0457M10.4333 10.4738C10.4333 10.4738 9.57831 9.73213 8.79458 9.08861C8.32566 8.70357 8.18192 7.8053 8.60459 7.3664C9.10271 6.84916 10.0657 7.27632 10.5758 7.78194C11.0859 8.28756 11.2294 8.41445 11.7395 8.92007M10.4333 10.4738L11.7395 9.95585M12.0008 16.6884H15.9432C16.0743 16.6884 16.1807 16.5821 16.1807 16.4509V12.5453M12.0008 16.6884V12.5453M12.0008 12.5453H16.1807M16.1807 12.5453H16.9881C17.1193 12.5453 17.2256 12.439 17.2256 12.3078V10.7112C17.2256 10.5801 17.1193 10.4738 16.9881 10.4738H13.0457M13.0457 10.4738C13.0457 10.4738 14.1382 9.44441 14.6132 8.92007C14.9526 8.54535 14.9398 8.01377 14.6132 7.62535C14.2213 7.15923 13.4058 7.37251 12.9507 7.78194C12.3807 8.29478 11.7395 8.92007 11.7395 8.92007M13.0457 10.4738L11.7395 9.95585M11.7395 8.92007V9.95585" stroke="#FF6D22" stroke-width="0.474989"/>
</g>
<defs>
<clipPath id="clip0_60_328">
<rect width="10.9247" height="10.2123" fill="white" transform="translate(6.53772 6.89404)"/>
</clipPath>
</defs>
</svg>
