<svg width="24" height="24" viewBox="0 0 24 24" fill="none" xmlns="http://www.w3.org/2000/svg">
<circle cx="12" cy="12" r="12" fill="#CFFFD8"/>
<g clip-path="url(#clip0_60_446)">
<path d="M5.24627 12.0613L4.96765 12.2603C4.91265 12.2996 4.88 12.363 4.88 12.4306V14.4348C4.88 14.5185 4.9299 14.5942 5.00685 14.6272L5.24627 14.7298M5.24627 12.0613L5.52488 12.2603C5.57988 12.2996 5.61253 12.363 5.61253 12.4306V14.3605C5.61253 14.4281 5.57988 14.4915 5.52488 14.5308L5.24627 14.7298M5.24627 12.0613V11.5381M5.24627 14.7298V15.2007" stroke="#00AD20" stroke-width="0.237494"/>
<path d="M6.9201 10.686L6.66213 10.8282C6.59532 10.865 6.55383 10.9352 6.55383 11.0115V12.4723C6.55383 12.5625 6.61171 12.6426 6.69742 12.671L6.9201 12.7446M6.9201 10.686L7.17806 10.8282C7.24487 10.865 7.28636 10.9352 7.28636 11.0115V12.4191C7.28636 12.4954 7.24487 12.5656 7.17806 12.6024L6.9201 12.7446M6.9201 10.686V10.2301M6.9201 12.7446V13.1079" stroke="#00AD20" stroke-width="0.237494"/>
<path d="M8.49047 7.54668L8.23248 7.68883C8.1657 7.72564 8.12421 7.79587 8.12421 7.87213V9.33288C8.12421 9.42315 8.18208 9.50326 8.2678 9.53159L8.49047 9.60522M8.49047 7.54668L8.74844 7.68883C8.81524 7.72564 8.85673 7.79587 8.85673 7.87213V9.27975C8.85673 9.35604 8.81524 9.42627 8.74844 9.46308L8.49047 9.60522M8.49047 7.54668V6.41052M8.49047 9.60522V10.6487" stroke="#00AD20" stroke-width="0.237494"/>
<path d="M10.0607 9.5347L9.80273 9.67684C9.73595 9.71365 9.69446 9.78388 9.69446 9.86016V11.3209C9.69446 11.4112 9.75234 11.4913 9.83805 11.5196L10.0607 11.5932M10.0607 9.5347L10.3187 9.67684C10.3855 9.71365 10.427 9.78388 10.427 9.86016V11.2678C10.427 11.3441 10.3855 11.4143 10.3187 11.4511L10.0607 11.5932M10.0607 9.5347V9.07874M10.0607 11.5932V12.1658" stroke="#00AD20" stroke-width="0.237494"/>
<path d="M11.6291 11.523L11.3711 11.6652C11.3043 11.702 11.2628 11.7722 11.2628 11.8485V13.3092C11.2628 13.3995 11.3207 13.4796 11.4064 13.5079L11.6291 13.5815M11.6291 11.523L11.8871 11.6652C11.9539 11.702 11.9953 11.7722 11.9953 11.8485V13.2561C11.9953 13.3323 11.9539 13.4026 11.8871 13.4394L11.6291 13.5815M11.6291 11.523V10.3868M11.6291 13.5815V14.468" stroke="#00AD20" stroke-width="0.237494"/>
<path d="M13.1995 13.5111L12.9415 13.6532C12.8747 13.69 12.8333 13.7602 12.8333 13.8365V15.2972C12.8333 15.3875 12.8911 15.4676 12.9768 15.496L13.1995 15.5696M13.1995 13.5111L13.4575 13.6532C13.5243 13.69 13.5658 13.7602 13.5658 13.8365V15.2441C13.5658 15.3204 13.5243 15.3906 13.4575 15.4274L13.1995 15.5696M13.1995 13.5111V12.3749M13.1995 15.5696V16.3514" stroke="#00AD20" stroke-width="0.237494"/>
<path d="M14.7697 10.0123L14.4558 10.3679C14.4221 10.4061 14.4034 10.4554 14.4034 10.5064V13.8845C14.4034 13.9538 14.4378 14.0186 14.4951 14.0576L14.7697 14.2442M14.7697 10.0123L15.0836 10.3679C15.1173 10.4061 15.136 10.4554 15.136 10.5064V13.7501C15.136 13.8012 15.1173 13.8504 15.0836 13.8887L14.7697 14.2442M14.7697 10.0123V9.23547M14.7697 14.2442V15.0433" stroke="#00AD20" stroke-width="0.237494"/>
<path d="M16.3381 8.59024L16.0538 8.8079C16.0021 8.84749 15.9718 8.90893 15.9718 8.97405V11.1488C15.9718 11.2306 16.0194 11.3048 16.0937 11.339L16.3381 11.4512M16.3381 8.59024L16.6223 8.8079C16.674 8.84749 16.7043 8.90893 16.7043 8.97405V11.0674C16.7043 11.1326 16.674 11.194 16.6223 11.2336L16.3381 11.4512M16.3381 8.59024V7.66565M16.3381 11.4512V12.2701" stroke="#00AD20" stroke-width="0.237494"/>
<path d="M17.9086 7.25688L17.6156 7.50739C17.5691 7.54715 17.5424 7.60527 17.5424 7.66646V10.1354C17.5424 10.2139 17.5863 10.2858 17.6561 10.3216L17.9086 10.4511M17.9086 7.25688L18.2016 7.50739C18.2481 7.54715 18.2749 7.60527 18.2749 7.66646V10.0416C18.2749 10.1028 18.2481 10.1609 18.2016 10.2007L17.9086 10.4511M17.9086 7.25688V6.30579M17.9086 10.4511V11.3288" stroke="#00AD20" stroke-width="0.237494"/>
<path d="M8.5437 12.5887L8.6342 12.5118L8.54296 12.4044L8.45257 12.5126L8.5437 12.5887ZM13.2528 18.1349L13.1622 18.2118L13.2479 18.3127L13.3389 18.2166L13.2528 18.1349ZM18.956 12.1178L17.6415 12.508L18.6367 13.4513L18.956 12.1178ZM5.35199 16.4083L5.44311 16.4844L8.63482 12.6648L8.5437 12.5887L8.45257 12.5126L5.26086 16.3321L5.35199 16.4083ZM8.5437 12.5887L8.45316 12.6656L13.1622 18.2118L13.2528 18.1349L13.3433 18.0581L8.6342 12.5118L8.5437 12.5887ZM13.2528 18.1349L13.3389 18.2166L18.307 12.9752L18.2208 12.8935L18.1346 12.8118L13.1666 18.0533L13.2528 18.1349Z" fill="#00AD20"/>
</g>
<defs>
<clipPath id="clip0_60_446">
<rect width="15.9121" height="13.0622" fill="white" transform="translate(4.04407 5.46887)"/>
</clipPath>
</defs>
</svg>
