<svg width="24" height="24" viewBox="0 0 24 24" fill="none" xmlns="http://www.w3.org/2000/svg">
<circle cx="12" cy="12" r="12" fill="#FEEEC1"/>
<g clip-path="url(#clip0_60_415)">
<path d="M8.73135 11.0943C8.36741 9.27193 9.84685 7.13053 11.7059 7.1311C13.9363 7.1318 15.2361 8.86285 15.1755 10.8474C15.1344 12.1916 13.6267 14.2117 13.6267 14.2117L11.9746 16.6309L10.3225 14.3297C10.3225 14.3297 8.97888 12.3338 8.73135 11.0943Z" stroke="#DBBB00" stroke-width="0.474989"/>
<path d="M10.104 10.6019C10.0356 9.57543 10.8122 8.6878 11.8388 8.61936C12.9313 8.54653 13.8942 9.50941 13.8213 10.6019C13.7529 11.6285 12.8652 12.4051 11.8388 12.3367C10.8828 12.273 10.1677 11.5579 10.104 10.6019Z" fill="#FEEEC1" stroke="#DBBB00" stroke-width="0.474989"/>
</g>
<defs>
<clipPath id="clip0_60_415">
<rect width="7.12483" height="10.2123" fill="white" transform="translate(8.43768 6.8938)"/>
</clipPath>
</defs>
</svg>
