<svg width="24" height="24" viewBox="0 0 24 24" fill="none" xmlns="http://www.w3.org/2000/svg">
<circle cx="12" cy="12" r="12" fill="#FFD4C5"/>
<g clip-path="url(#clip0_60_461)">
<path d="M16.7491 12.0477V16.7178C16.7491 16.7178 15.7411 16.823 15.1325 16.6524C14.7198 16.5366 14.1344 16.1941 14.1344 16.1941C14.1344 16.1941 12.7348 16.7908 10.7927 16.4123C9.41485 16.1438 8.01528 15.2775 7.46195 14.6338C7.32065 14.4693 7.31673 14.4129 7.27751 14.2518C7.23316 14.0697 7.23412 13.8808 7.33177 13.5426C7.85289 11.7376 8.28651 10.2583 8.79644 8.54517C8.83193 8.42594 8.8797 8.34706 8.99173 8.2942C9.87053 7.87957 10.4347 7.66121 11.2267 7.30119C11.3117 7.26258 11.4397 7.23658 11.5305 7.25762C11.6173 7.27772 11.7366 7.35582 11.7366 7.35582C11.7366 7.35582 12.1923 7.92314 12.4419 8.25048C12.5037 8.33164 12.5128 8.43908 12.4419 8.51235C12.144 8.81998 11.7208 9.19368 11.5222 9.36607C11.4596 9.42039 11.3659 9.4165 11.3027 9.36296C11.225 9.2972 11.1158 9.21443 11.0097 9.16704C10.8366 9.08964 10.5783 9.10664 10.413 9.19985C10.2127 9.31282 10.0875 9.52712 10.0875 9.79991C10.0875 10.8691 10.4056 13.1497 10.4056 13.1497C10.7311 12.6914 11.222 12.3169 12.2249 12.4624C13.2773 12.615 13.5429 13.3062 13.5429 13.3062C13.5429 13.3062 14.2863 11.9931 15.3929 11.8295C16.1741 11.714 16.7491 12.0477 16.7491 12.0477Z" fill="#FFD4C5" stroke="#DB3700" stroke-width="0.474989"/>
</g>
<defs>
<clipPath id="clip0_60_461">
<rect width="9.97477" height="9.97477" fill="white" transform="translate(7.01276 7.01257)"/>
</clipPath>
</defs>
</svg>
