<svg width="24" height="24" viewBox="0 0 24 24" fill="none" xmlns="http://www.w3.org/2000/svg">
<circle cx="12" cy="12" r="12" fill="#D9D7FF"/>
<g clip-path="url(#clip0_60_383)">
<path d="M5.47765 12.2803C5.27118 9.01372 8.00552 6.44886 11.26 6.10095C15.0356 5.69733 18.481 8.51242 18.2443 12.1667C18.0219 15.5984 14.7068 17.8131 11.3734 17.5864C8.35782 17.3812 5.67421 15.3898 5.47765 12.2803Z" stroke="#543DFC" stroke-width="0.474989"/>
<path d="M11.4868 10.2049C11.8269 9.05982 11.1013 8.30017 11.1013 8.30017C11.1013 8.30017 10.4408 8.64649 10.0015 8.83306C9.43568 9.07336 8.42552 9.34327 8.42552 9.34327C8.42552 9.34327 8.35408 10.4431 8.83365 10.8966C9.8767 11.883 11.1853 11.22 11.4868 10.2049Z" fill="url(#paint0_radial_60_383)" stroke="black" stroke-width="0.022676"/>
<path d="M9.59357 9.87677C9.55522 9.4166 9.80516 8.96548 10.2625 8.90172C10.7494 8.83382 11.1446 9.28373 11.1695 9.77475C11.1936 10.2499 10.8855 10.7143 10.4099 10.7271C9.94972 10.7396 9.63179 10.3355 9.59357 9.87677Z" fill="#00132B" stroke="black" stroke-width="0.022676"/>
<path d="M9.73154 9.85381C9.70019 9.4552 9.90448 9.06445 10.2784 9.0092C10.6764 8.95038 10.9995 9.34011 11.0199 9.76541C11.0395 10.177 10.7876 10.5792 10.3989 10.5904C10.0227 10.6012 9.76277 10.2512 9.73154 9.85381Z" fill="url(#paint1_radial_60_383)" stroke="black" stroke-width="0.022676"/>
<path d="M9.91224 9.8473C9.89025 9.57966 10.0336 9.3173 10.296 9.28021C10.5753 9.24074 10.802 9.50238 10.8163 9.78797C10.8301 10.0643 10.6533 10.3344 10.3805 10.3419C10.1166 10.3491 9.93416 10.1141 9.91224 9.8473Z" fill="#00132B" stroke="black" stroke-width="0.022676"/>
<path d="M10.4884 10.0245C10.4915 9.91492 10.5829 9.82861 10.6924 9.83175C10.7989 9.83479 10.8821 9.9181 10.8852 10.0245C10.8883 10.1341 10.802 10.2254 10.6924 10.2286C10.5798 10.2318 10.4852 10.1372 10.4884 10.0245Z" fill="white"/>
<path d="M10.1943 9.57107C10.1443 9.76131 9.95537 9.87469 9.76343 9.83184C9.58106 9.79114 9.46319 9.63247 9.47998 9.44634C9.49713 9.25592 9.65157 9.1171 9.84278 9.11755C10.0669 9.11808 10.2511 9.35434 10.1943 9.57107Z" fill="white"/>
<path d="M10.4884 10.0245C10.4915 9.91492 10.5829 9.82861 10.6924 9.83175C10.7989 9.83479 10.8821 9.9181 10.8852 10.0245C10.8883 10.1341 10.802 10.2254 10.6924 10.2286C10.5798 10.2318 10.4852 10.1372 10.4884 10.0245Z" stroke="white" stroke-width="0.022676"/>
<path d="M10.1943 9.57107C10.1443 9.76131 9.95537 9.87469 9.76343 9.83184C9.58106 9.79114 9.46319 9.63247 9.47998 9.44634C9.49713 9.25592 9.65157 9.1171 9.84278 9.11755C10.0669 9.11808 10.2511 9.35434 10.1943 9.57107Z" stroke="white" stroke-width="0.022676"/>
<path d="M13.8776 8.83327C13.4062 8.62421 12.7325 8.17566 12.7325 8.17566C12.7325 8.17566 12.3042 8.67061 12.1996 9.06003C11.95 9.98944 12.5756 11.0837 13.5035 11.339C14.3264 11.5653 14.9872 11.0545 15.2495 10.3072C15.3844 9.92282 15.2495 9.26411 15.2495 9.26411C15.2495 9.26411 14.391 9.06093 13.8776 8.83327Z" fill="url(#paint2_radial_60_383)" stroke="black" stroke-width="0.022676"/>
<path d="M12.5877 9.87189C12.5494 9.4117 12.7993 8.9606 13.2567 8.89683C13.7436 8.82893 14.1388 9.27884 14.1637 9.76984C14.1878 10.245 13.8796 10.7094 13.404 10.7222C12.9439 10.7347 12.6259 10.3306 12.5877 9.87189Z" fill="#00132B" stroke="black" stroke-width="0.022676"/>
<path d="M12.7276 9.87236C12.6963 9.47375 12.9006 9.083 13.2745 9.02775C13.6725 8.96895 13.9956 9.35866 14.0159 9.78396C14.0356 10.1955 13.7837 10.5978 13.395 10.6089C13.0188 10.6197 12.7589 10.2697 12.7276 9.87236Z" fill="url(#paint3_radial_60_383)" stroke="black" stroke-width="0.022676"/>
<path d="M12.9064 9.81947C12.8844 9.55181 13.0278 9.28945 13.2901 9.25238C13.5695 9.21288 13.7962 9.47456 13.8105 9.76012C13.8243 10.0364 13.6475 10.3065 13.3747 10.314C13.1107 10.3212 12.9283 10.0863 12.9064 9.81947Z" fill="#00132B" stroke="black" stroke-width="0.022676"/>
<path d="M13.5293 10.0423C13.5324 9.93274 13.6238 9.84644 13.7333 9.84957C13.8398 9.85261 13.923 9.93592 13.9261 10.0423C13.9292 10.1519 13.8429 10.2433 13.7333 10.2464C13.6207 10.2496 13.526 10.155 13.5293 10.0423Z" fill="white"/>
<path d="M13.3251 9.42996C13.2752 9.62022 13.0862 9.7336 12.8943 9.69075C12.7119 9.65002 12.5941 9.49135 12.6108 9.30525C12.628 9.11481 12.7824 8.97599 12.9737 8.97644C13.1977 8.97699 13.382 9.21322 13.3251 9.42996Z" fill="white"/>
<path d="M13.5293 10.0423C13.5324 9.93274 13.6238 9.84644 13.7333 9.84957C13.8398 9.85261 13.923 9.93592 13.9261 10.0423C13.9292 10.1519 13.8429 10.2433 13.7333 10.2464C13.6207 10.2496 13.526 10.155 13.5293 10.0423Z" stroke="white" stroke-width="0.022676"/>
<path d="M13.3251 9.42996C13.2752 9.62022 13.0862 9.7336 12.8943 9.69075C12.7119 9.65002 12.5941 9.49135 12.6108 9.30525C12.628 9.11481 12.7824 8.97599 12.9737 8.97644C13.1977 8.97699 13.382 9.21322 13.3251 9.42996Z" stroke="white" stroke-width="0.022676"/>
<path d="M11.7132 12.2118C8.56234 12.2969 5.90808 13.3002 5.90808 13.3002V17.6654C5.90808 17.6654 9.53269 16.8642 11.8492 16.8717C14.2588 16.8796 17.8924 17.6994 17.8924 17.6994L18.0284 13.4703C18.0284 13.4703 14.6497 12.1324 11.7132 12.2118Z" fill="#D9D6FF" stroke="#543DFC" stroke-width="0.474989"/>
<path d="M16.9968 13.7201C17.2576 13.1644 17.6557 13.3764 18.0513 13.516C18.6295 13.7201 19.049 14.0828 19.117 14.5591C19.2012 15.1487 18.8109 15.3981 18.8109 15.3981C18.8109 15.3981 19.2709 15.9644 19.117 16.3051C19.0448 16.465 18.8109 16.6339 18.8109 16.6339C18.8109 16.6339 19.1542 17.0785 19.049 17.3935C18.8981 17.8452 18.3424 17.9204 17.8812 17.8017C17.3271 17.6593 16.7366 17.1434 16.9968 16.6339C17.1098 16.4128 17.4844 16.2258 17.4844 16.2258C17.4844 16.2258 16.7422 15.7381 16.9968 15.1487C17.0813 14.9531 17.371 14.7518 17.371 14.7518C17.371 14.7518 16.8147 14.1081 16.9968 13.7201Z" fill="#D9D6FF"/>
<path d="M5.73869 13.3913C6.13504 13.2541 6.57543 13.2369 6.79312 13.5954C7.01915 13.9676 6.43031 14.6498 6.43031 14.6498C6.43031 14.6498 6.76097 14.7693 6.83848 14.9899C6.98587 15.4093 6.74778 15.9423 6.29426 16.1578C6.58034 16.1849 6.70995 16.2909 6.79312 16.566C6.94051 17.0534 6.28292 17.5976 5.5913 17.745C5.19231 17.8301 4.91675 17.6705 4.79764 17.2803C4.71361 17.005 4.97905 16.566 4.97905 16.566C4.97905 16.566 4.74713 16.4039 4.67292 16.2485C4.51003 15.9074 4.97905 15.3301 4.97905 15.3301C4.97905 15.3301 4.74551 15.11 4.71827 14.8199C4.65806 14.1787 5.14911 13.5954 5.73869 13.3913Z" fill="#D9D6FF"/>
<path d="M17.3715 14.7519C17.3715 14.7519 16.8152 14.1081 16.9973 13.7202C17.2581 13.1645 17.6563 13.3765 18.0518 13.516C18.63 13.7202 19.0495 14.0829 19.1175 14.5591C19.2018 15.1487 18.8114 15.3982 18.8114 15.3982M17.3715 14.7519C17.3715 14.7519 17.0818 14.9532 16.9973 15.1487C16.7427 15.7382 17.4849 16.2258 17.4849 16.2258M17.3715 14.7519C17.3715 14.7519 17.7459 14.7334 17.9724 14.7973C18.3603 14.9067 18.8114 15.3982 18.8114 15.3982M18.8114 15.3982C18.8114 15.3982 19.2714 15.9645 19.1175 16.3052C19.0453 16.4651 18.8114 16.634 18.8114 16.634M17.4849 16.2258C17.4849 16.2258 17.1103 16.4129 16.9973 16.634C16.7371 17.1434 17.3277 17.6594 17.8817 17.8018C18.343 17.9204 18.8987 17.8453 19.0495 17.3936C19.1547 17.0786 18.8114 16.634 18.8114 16.634M17.4849 16.2258C17.4849 16.2258 17.8351 16.2501 18.0518 16.3052C18.3651 16.3849 18.8114 16.634 18.8114 16.634M6.43031 14.6498C6.43031 14.6498 7.01915 13.9676 6.79312 13.5954C6.57543 13.2369 6.13504 13.2541 5.73869 13.3913C5.14911 13.5954 4.65806 14.1787 4.71827 14.8199C4.74551 15.11 4.97905 15.3301 4.97905 15.3301M6.43031 14.6498C6.43031 14.6498 6.76097 14.7693 6.83848 14.9899C6.98587 15.4093 6.74777 15.9423 6.29426 16.1578M6.43031 14.6498C6.43031 14.6498 5.9955 14.7131 5.73869 14.8199C5.40874 14.9572 4.97905 15.3301 4.97905 15.3301M4.97905 15.3301C4.97905 15.3301 4.51003 15.9074 4.67292 16.2485C4.74713 16.4039 4.97905 16.566 4.97905 16.566M6.29426 16.1578C6.58034 16.1849 6.70995 16.2909 6.79312 16.566C6.94051 17.0534 6.28292 17.5976 5.5913 17.745C5.19231 17.8301 4.91675 17.6705 4.79764 17.2803C4.71361 17.005 4.97905 16.566 4.97905 16.566M6.29426 16.1578C6.04189 16.1603 5.83603 16.1868 5.5913 16.2485C5.29455 16.3233 4.97905 16.566 4.97905 16.566" stroke="#543DFC" stroke-width="0.474989"/>
<path d="M12.5414 7.76757C12.5062 7.72203 12.496 7.66512 12.496 7.57462C12.496 7.53654 12.4847 7.47276 12.4167 7.48413C12.3486 7.49549 12.36 7.54794 12.36 7.58603C12.36 7.67659 12.3628 7.71032 12.3826 7.80159C12.496 8.323 13.0856 8.66329 13.6752 8.90137C14.2899 9.14963 14.911 9.2982 15.3079 9.36625C15.3653 9.37608 15.4345 9.398 15.4552 9.34356C15.4812 9.27538 15.3771 9.24415 15.3192 9.23004C14.8543 9.11666 14.4493 8.99098 13.9019 8.75398C12.8022 8.27778 12.7341 8.01701 12.5414 7.76757Z" fill="#543DFC"/>
<path d="M11.3162 7.52926C11.2761 7.52158 11.2484 7.55661 11.2484 7.59743C11.2484 7.63131 11.2484 7.68996 11.2257 7.73349C10.9422 8.27757 10.5887 8.43674 10.0579 8.69722C9.4343 9.00321 9.01458 9.10524 8.40239 9.25265C8.33622 9.26856 8.28523 9.27305 8.28915 9.32081C8.29288 9.36625 8.35708 9.38869 8.44777 9.36603C9.0004 9.22788 9.3774 9.17328 9.93316 8.96935C10.3978 8.79882 11.0523 8.51568 11.2711 8.0168C11.3407 7.85807 11.3842 7.71067 11.3729 7.60863C11.3689 7.57315 11.3563 7.53695 11.3162 7.52926Z" fill="#543DFC"/>
<path d="M12.5414 7.76757C12.5062 7.72203 12.496 7.66512 12.496 7.57462C12.496 7.53654 12.4847 7.47276 12.4167 7.48413C12.3486 7.49549 12.36 7.54794 12.36 7.58603C12.36 7.67659 12.3628 7.71032 12.3826 7.80159C12.496 8.323 13.0856 8.66329 13.6752 8.90137C14.2899 9.14963 14.911 9.2982 15.3079 9.36625C15.3653 9.37608 15.4345 9.398 15.4552 9.34356C15.4812 9.27538 15.3771 9.24415 15.3192 9.23004C14.8543 9.11666 14.4493 8.99098 13.9019 8.75398C12.8022 8.27778 12.7341 8.01701 12.5414 7.76757Z" stroke="#543DFC" stroke-width="0.022676"/>
<path d="M11.3162 7.52926C11.2761 7.52158 11.2484 7.55661 11.2484 7.59743C11.2484 7.63131 11.2484 7.68996 11.2257 7.73349C10.9422 8.27757 10.5887 8.43674 10.0579 8.69722C9.4343 9.00321 9.01458 9.10524 8.40239 9.25265C8.33622 9.26856 8.28523 9.27305 8.28915 9.32081C8.29288 9.36625 8.35708 9.38869 8.44777 9.36603C9.0004 9.22788 9.3774 9.17328 9.93316 8.96935C10.3978 8.79882 11.0523 8.51568 11.2711 8.0168C11.3407 7.85807 11.3842 7.71067 11.3729 7.60863C11.3689 7.57315 11.3563 7.53695 11.3162 7.52926Z" stroke="#543DFC" stroke-width="0.022676"/>
<path d="M9.1846 13.7924C9.40049 13.7924 9.58462 13.8368 9.73699 13.9257C9.88937 14.0146 9.96556 14.1089 9.96556 14.2087C9.96556 14.2359 9.95922 14.2595 9.94651 14.2794C9.93563 14.2976 9.92112 14.3112 9.90298 14.3203C9.88664 14.3275 9.86852 14.3311 9.84854 14.3311C9.81589 14.3311 9.76692 14.3148 9.70161 14.2822C9.63629 14.2477 9.56374 14.2141 9.48392 14.1815C9.4041 14.147 9.33064 14.1298 9.2635 14.1298C9.15648 14.1298 9.10295 14.1733 9.10295 14.2604C9.10295 14.2876 9.11112 14.3139 9.12746 14.3393C9.14561 14.3629 9.1737 14.3883 9.21182 14.4155C9.24991 14.4409 9.28708 14.4636 9.32337 14.4835C9.35966 14.5035 9.40953 14.5307 9.47304 14.5651C9.53652 14.5978 9.59005 14.6268 9.63359 14.6522C9.77326 14.7321 9.87122 14.8082 9.92746 14.8808C9.9837 14.9534 10.0118 15.0368 10.0118 15.1311C10.0118 15.5067 9.75875 15.6944 9.25262 15.6944C9.15285 15.6944 9.05581 15.6845 8.96148 15.6645C8.86895 15.6445 8.78732 15.6182 8.71657 15.5856C8.64763 15.5529 8.58595 15.5166 8.53152 15.4767C8.47891 15.4368 8.43901 15.396 8.4118 15.3543C8.38458 15.3126 8.37097 15.2736 8.37097 15.2373C8.37097 15.1974 8.38368 15.1638 8.40909 15.1366C8.43628 15.1076 8.4753 15.093 8.52608 15.093C8.56417 15.093 8.6558 15.1175 8.80093 15.1665C8.94604 15.2137 9.06305 15.2373 9.15195 15.2373C9.23357 15.2373 9.2744 15.2092 9.2744 15.1529C9.2744 15.1366 9.27077 15.1221 9.2635 15.1094C9.25806 15.0949 9.24718 15.0813 9.23087 15.0686C9.21636 15.054 9.19911 15.0413 9.17917 15.0305C9.16102 15.0178 9.13471 15.0023 9.10025 14.9842C9.06759 14.9661 9.03403 14.9479 8.99957 14.9298C8.96692 14.9116 8.92336 14.8881 8.86895 14.859C8.81452 14.83 8.76191 14.801 8.71113 14.772C8.64399 14.7339 8.58595 14.6867 8.53698 14.6305C8.48981 14.5742 8.45533 14.5189 8.43358 14.4645C8.4118 14.4082 8.40092 14.3565 8.40092 14.3094C8.40092 14.157 8.46894 14.0327 8.605 13.9366C8.74106 13.8404 8.93426 13.7924 9.1846 13.7924ZM11.0943 15.0305C11.0943 14.9361 11.0825 14.8536 11.0589 14.7829C11.0353 14.7103 11.0009 14.674 10.9555 14.674C10.9247 14.674 10.8975 14.6921 10.8739 14.7284C10.8503 14.7647 10.8331 14.8091 10.8222 14.8617C10.8113 14.9144 10.8059 14.9706 10.8059 15.0305C10.8059 15.123 10.8186 15.2046 10.844 15.2754C10.8693 15.3443 10.9056 15.3788 10.9528 15.3788C11 15.3788 11.0353 15.3443 11.0589 15.2754C11.0825 15.2064 11.0943 15.1248 11.0943 15.0305ZM10.9528 15.6944C10.8113 15.6944 10.6834 15.669 10.5691 15.6182C10.4566 15.5674 10.3659 15.4913 10.297 15.3897C10.2299 15.2881 10.1963 15.1692 10.1963 15.0332C10.1963 14.8264 10.2671 14.6622 10.4086 14.5407C10.5501 14.4191 10.7315 14.3584 10.9528 14.3584C11.1741 14.3584 11.3546 14.4191 11.4943 14.5407C11.634 14.6622 11.7038 14.8264 11.7038 15.0332C11.7038 15.2382 11.6322 15.3996 11.4889 15.5175C11.3474 15.6355 11.1687 15.6944 10.9528 15.6944ZM12.5171 15.3842C12.5171 15.4931 12.4944 15.5692 12.449 15.6128C12.4037 15.6545 12.323 15.6754 12.2069 15.6754C12.0998 15.6754 12.0273 15.6509 11.9892 15.6019C11.9511 15.5511 11.932 15.4686 11.932 15.3543V14.6849C11.932 14.6232 11.9429 14.5697 11.9647 14.5243C11.9864 14.4772 12.0182 14.4409 12.0599 14.4155C12.1016 14.3901 12.1506 14.3774 12.2069 14.3774C12.3447 14.3774 12.4354 14.4173 12.479 14.4971C12.5842 14.4173 12.6858 14.3774 12.7837 14.3774C12.9742 14.3774 13.0694 14.4681 13.0694 14.6495C13.0694 14.7221 13.0486 14.781 13.0069 14.8264C12.9651 14.8717 12.9107 14.8944 12.8436 14.8944C12.8037 14.8944 12.771 14.8862 12.7456 14.8699C12.7221 14.8536 12.6994 14.8373 12.6776 14.8209C12.6577 14.8046 12.6341 14.7964 12.6069 14.7964C12.567 14.7964 12.537 14.81 12.5171 14.8373V15.3842ZM13.8006 15.3842C13.8006 15.4931 13.7779 15.5692 13.7325 15.6128C13.6872 15.6545 13.6064 15.6754 13.4904 15.6754C13.3833 15.6754 13.3108 15.6509 13.2727 15.6019C13.2346 15.5511 13.2155 15.4686 13.2155 15.3543V14.6849C13.2155 14.6232 13.2264 14.5697 13.2482 14.5243C13.2699 14.4772 13.3017 14.4409 13.3434 14.4155C13.3851 14.3901 13.4341 14.3774 13.4904 14.3774C13.6282 14.3774 13.7189 14.4173 13.7625 14.4971C13.8677 14.4173 13.9693 14.3774 14.0672 14.3774C14.2577 14.3774 14.353 14.4681 14.353 14.6495C14.353 14.7221 14.3321 14.781 14.2904 14.8264C14.2486 14.8717 14.1942 14.8944 14.1271 14.8944C14.0872 14.8944 14.0545 14.8862 14.0291 14.8699C14.0056 14.8536 13.9829 14.8373 13.9611 14.8209C13.9411 14.8046 13.9176 14.7964 13.8904 14.7964C13.8504 14.7964 13.8205 14.81 13.8006 14.8373V15.3842ZM15.9086 14.908C15.9086 15.2182 15.8995 15.435 15.8814 15.5584C15.8668 15.669 15.8442 15.7643 15.8133 15.8441C15.7825 15.9257 15.739 15.9974 15.6827 16.0591C15.6265 16.1225 15.5548 16.1697 15.4677 16.2006C15.3807 16.2314 15.2773 16.2468 15.1575 16.2468C15.0614 16.2468 14.9716 16.2323 14.8881 16.2033C14.8065 16.1761 14.7412 16.1416 14.6922 16.0999C14.6451 16.06 14.6079 16.0201 14.5806 15.9801C14.5535 15.9402 14.5398 15.9058 14.5398 15.8767C14.5398 15.8477 14.5489 15.8205 14.567 15.7951C14.587 15.7715 14.6133 15.7597 14.646 15.7597C14.6695 15.7597 14.6968 15.767 14.7276 15.7815C14.7602 15.796 14.7911 15.8123 14.8201 15.8305C14.8491 15.8486 14.8836 15.8649 14.9235 15.8795C14.9634 15.894 15.0024 15.9012 15.0405 15.9012C15.1385 15.9012 15.2074 15.8767 15.2473 15.8278C15.289 15.7788 15.3099 15.7089 15.3099 15.6182C15.2791 15.6309 15.2491 15.6418 15.2201 15.6509C15.1911 15.6599 15.163 15.6672 15.1358 15.6726C15.1085 15.6781 15.0823 15.6817 15.0568 15.6835C15.0333 15.6854 15.0097 15.6863 14.9861 15.6863C14.8791 15.6863 14.7875 15.6563 14.7113 15.5965C14.6351 15.5366 14.5797 15.4631 14.5453 15.376C14.5126 15.2871 14.4963 15.1919 14.4963 15.0903C14.4963 14.9887 14.4972 14.9026 14.499 14.8318C14.5027 14.7611 14.509 14.6985 14.5181 14.6441C14.5271 14.5878 14.5371 14.5434 14.548 14.5107C14.5607 14.4781 14.5779 14.4518 14.5997 14.4318C14.6215 14.4101 14.646 14.3955 14.6732 14.3883C14.7004 14.381 14.733 14.3774 14.7711 14.3774C14.8854 14.3774 14.9652 14.3974 15.0106 14.4373C15.0577 14.4753 15.0813 14.5361 15.0813 14.6196L15.0841 15.0577C15.0841 15.0867 15.0841 15.1085 15.0841 15.123C15.0841 15.1357 15.085 15.152 15.0868 15.172C15.0904 15.1919 15.094 15.2064 15.0977 15.2155C15.1031 15.2246 15.1094 15.2345 15.1167 15.2454C15.1258 15.2545 15.1367 15.2609 15.1494 15.2645C15.1639 15.2681 15.1811 15.2699 15.2011 15.2699C15.2555 15.2699 15.289 15.2554 15.3017 15.2264C15.3163 15.1955 15.3235 15.1402 15.3235 15.0604L15.3262 14.6196C15.3262 14.5633 15.3353 14.518 15.3535 14.4835C15.3734 14.4491 15.4061 14.4227 15.4514 14.4046C15.4968 14.3865 15.5584 14.3774 15.6364 14.3774C15.6836 14.3774 15.7235 14.3855 15.7562 14.4019C15.7907 14.4164 15.8178 14.4363 15.8378 14.4618C15.8578 14.4853 15.8723 14.5216 15.8814 14.5706C15.8922 14.6178 15.8995 14.6658 15.9031 14.7148C15.9067 14.7638 15.9086 14.8282 15.9086 14.908Z" fill="#543DFC"/>
</g>
<defs>
<radialGradient id="paint0_radial_60_383" cx="0" cy="0" r="1" gradientUnits="userSpaceOnUse" gradientTransform="translate(10.1375 9.77411) rotate(89.076) scale(1.4061 3.00974)">
<stop stop-color="white"/>
<stop offset="1" stop-color="#D0EDFD"/>
</radialGradient>
<radialGradient id="paint1_radial_60_383" cx="0" cy="0" r="1" gradientUnits="userSpaceOnUse" gradientTransform="translate(10.386 9.79695) rotate(90.8185) scale(0.793742 0.646332)">
<stop stop-color="#62CBF8"/>
<stop offset="0.564983" stop-color="#62CBF8"/>
<stop offset="1" stop-color="#543DFC"/>
</radialGradient>
<radialGradient id="paint2_radial_60_383" cx="0" cy="0" r="1" gradientUnits="userSpaceOnUse" gradientTransform="translate(10.136 9.77432) rotate(89.076) scale(1.4061 3.00974)">
<stop stop-color="white"/>
<stop offset="1" stop-color="#D0EDFD"/>
</radialGradient>
<radialGradient id="paint3_radial_60_383" cx="0" cy="0" r="1" gradientUnits="userSpaceOnUse" gradientTransform="translate(13.3821 9.8155) rotate(90.8185) scale(0.793742 0.646331)">
<stop stop-color="#62CBF8"/>
<stop offset="0.564983" stop-color="#62CBF8"/>
<stop offset="1" stop-color="#543DFC"/>
</radialGradient>
<clipPath id="clip0_60_383">
<rect width="15.1996" height="12.3497" fill="white" transform="translate(4.40027 5.82507)"/>
</clipPath>
</defs>
</svg>
