<svg width="24" height="24" viewBox="0 0 24 24" fill="none" xmlns="http://www.w3.org/2000/svg">
<circle cx="12" cy="12" r="12" fill="#E7FFE8"/>
<g clip-path="url(#clip0_60_367)">
<path d="M3.69257 7.6189C3.82042 7.71807 4.00493 7.85913 4.2287 8.0271C5.21334 8.76621 6.99354 10.041 8.19061 10.5339C8.38238 10.6129 8.54359 10.7016 8.73749 10.7898C8.92362 10.8744 9.12256 10.9491 9.34686 10.9744C9.60479 11.0034 9.93671 10.9805 10.1974 10.9519C10.3291 10.9375 10.4453 10.9215 10.5285 10.9089C10.5701 10.9026 10.604 10.8972 10.6271 10.8933C10.6385 10.8914 10.6474 10.8895 10.6535 10.8884C10.6564 10.8879 10.6587 10.8877 10.6603 10.8875H10.6623L10.6633 10.8865C10.6642 10.8863 10.6655 10.8868 10.6672 10.8865C10.6708 10.8859 10.6769 10.8847 10.6838 10.8835C10.6976 10.8812 10.7176 10.8772 10.7424 10.8728C10.7922 10.8641 10.8617 10.8516 10.9406 10.8367C11.0981 10.8068 11.2963 10.7668 11.4504 10.7263C11.6322 10.6785 11.7696 10.6166 11.8957 10.5642C12.0218 10.5118 12.1419 10.4662 12.3039 10.4402C12.4639 10.4145 12.6777 10.4138 12.8566 10.4207C12.9448 10.424 13.0226 10.4291 13.0783 10.4333C13.0933 10.4345 13.1068 10.4353 13.1183 10.4363L16.3928 14.4353C16.3931 14.4384 16.3944 14.4416 16.3947 14.4451C16.3975 14.4718 16.4013 14.5085 16.4035 14.5486C16.4083 14.6358 16.4056 14.7175 16.3937 14.7566C16.3622 14.8599 16.3108 14.9379 16.2453 14.99C16.1801 15.0418 16.0944 15.0739 15.9865 15.0759C15.9178 15.0772 15.8341 15.0341 15.7551 14.9724C15.7183 14.9437 15.6871 14.9144 15.6652 14.8923C15.6543 14.8814 15.6454 14.8721 15.6398 14.866C15.6372 14.863 15.6352 14.8605 15.634 14.8591L15.633 14.8582L15.4406 14.9968L15.4416 14.9988C15.4426 15.0006 15.4445 15.0031 15.4465 15.0066C15.4508 15.0143 15.4574 15.0263 15.465 15.0408C15.4803 15.0698 15.5002 15.1102 15.5187 15.156C15.5588 15.2549 15.582 15.3531 15.5695 15.4167C15.5503 15.5143 15.5118 15.5863 15.4592 15.6414C15.4059 15.697 15.3321 15.741 15.2326 15.7722C15.1892 15.7858 15.1322 15.7839 15.0617 15.7634C14.9922 15.7433 14.9191 15.7083 14.8508 15.6677C14.7829 15.6274 14.723 15.5831 14.6799 15.5496C14.6584 15.5329 14.6406 15.5193 14.6291 15.5095C14.6235 15.5048 14.6192 15.5012 14.6164 15.4988C14.615 15.4975 14.6131 15.4954 14.6125 15.4949L14.4377 15.6531L14.4387 15.655C14.4397 15.6565 14.4415 15.6589 14.4435 15.6619C14.4479 15.6683 14.4544 15.6779 14.4621 15.6902C14.4777 15.7152 14.4974 15.7508 14.5168 15.7917C14.5579 15.8786 14.585 15.9708 14.5744 16.0417C14.5466 16.2252 14.3795 16.334 14.1457 16.3904C14.0706 16.4085 13.973 16.3817 13.8791 16.3347C13.8349 16.3125 13.7959 16.2878 13.7687 16.2693C13.7557 16.2604 13.7453 16.253 13.7385 16.2478C13.7351 16.2453 13.7322 16.2432 13.7307 16.2419L13.7287 16.24L13.5441 16.3777C13.5443 16.3782 13.5447 16.3794 13.5451 16.3806C13.5462 16.3836 13.5481 16.3882 13.55 16.3943C13.554 16.4075 13.5585 16.4267 13.5617 16.448C13.5651 16.4709 13.5665 16.4927 13.5646 16.5125L13.55 16.5642C13.4876 16.6787 13.3743 16.7233 13.1779 16.7478C13.1194 16.755 13.0397 16.7415 12.9445 16.7058C12.8512 16.6708 12.7534 16.6188 12.6633 16.5642C12.5737 16.51 12.4941 16.4542 12.4367 16.4119C12.4081 16.3907 12.3849 16.3724 12.3693 16.3601C12.3617 16.3541 12.3556 16.3496 12.3517 16.3464C12.3498 16.3449 12.3488 16.3433 12.3478 16.3425H12.3469L12.3459 16.3416L12.3322 16.3298L12.3146 16.323H12.3127C12.3118 16.3226 12.3105 16.3217 12.3088 16.321C12.305 16.3196 12.2995 16.3172 12.2922 16.3142C12.2774 16.3082 12.255 16.2995 12.2267 16.2878C12.1701 16.2645 12.0883 16.2294 11.9865 16.1853C11.7824 16.0969 11.499 15.9703 11.1848 15.8152C10.5536 15.5036 9.80571 15.084 9.30878 14.6443C9.17413 14.5252 9.0975 14.4029 8.9953 14.2693C8.89448 14.1376 8.77626 14.0074 8.57147 13.9177C8.45342 13.866 8.35198 13.8551 8.26385 13.8464C8.17563 13.8378 8.10305 13.8321 8.01678 13.8005C6.92073 13.3993 5.28043 12.8045 4.34003 12.4646C4.11773 12.3842 3.93446 12.3183 3.80682 12.2722C3.75807 12.2546 3.71735 12.2397 3.68573 12.2283V7.61304C3.68808 7.61486 3.69018 7.61704 3.69257 7.6189Z" fill="#E7FFE8" stroke="#87D09B" stroke-width="0.237494"/>
<path d="M15.5421 14.9348C15.5421 14.9348 15.7656 15.1984 15.9888 15.1942C16.2515 15.1892 16.4329 15.0363 16.5076 14.7907C16.5452 14.6668 16.5076 14.3872 16.5076 14.3872L13.1787 10.3232C13.1787 10.3232 12.6297 10.2679 12.2852 10.3232C11.9338 10.3796 11.7648 10.5209 11.4205 10.6114C11.1206 10.6903 10.6423 10.7699 10.6423 10.7699C10.6423 10.7699 9.84789 10.9114 9.35977 10.8564C8.94726 10.8099 8.61957 10.5821 8.23573 10.4241C7.05491 9.93785 5.28648 8.67268 4.29952 7.93182M15.5421 14.9348C15.5421 14.9348 15.7255 15.2382 15.6861 15.4392C15.6402 15.6736 15.4962 15.8145 15.2683 15.8859C14.972 15.9788 14.5333 15.5833 14.5333 15.5833M15.5421 14.9348C15.5421 14.9348 15.1933 14.3365 14.98 13.7819C14.908 13.5946 14.98 13.3351 14.98 13.3351M4.29952 7.93182C3.85312 7.59673 3.56659 7.3689 3.56659 7.3689V12.3119C3.56659 12.3119 3.85478 12.4159 4.29952 12.5767M4.29952 7.93182V12.5767M14.5333 15.5833C14.5333 15.5833 14.7239 15.8447 14.6918 16.0589C14.6527 16.3197 14.4168 16.4469 14.173 16.5056C13.9377 16.5623 13.6542 16.3327 13.6542 16.3327M14.5333 15.5833C14.5333 15.5833 14.2162 15.0789 14.1298 14.6898C14.1101 14.6011 14.1298 14.3872 14.1298 14.3872M13.6542 16.3327C13.6542 16.3327 13.7215 16.4974 13.6542 16.6209C13.5622 16.7898 13.3954 16.8406 13.1931 16.8659C12.8472 16.9091 12.2708 16.4336 12.2708 16.4336C12.2708 16.4336 10.249 15.6346 9.23007 14.733C8.938 14.4746 8.88115 14.1834 8.52393 14.0269C8.32377 13.9392 8.18156 13.9867 7.97631 13.9116C6.88052 13.5104 5.23998 12.9166 4.29952 12.5767M13.6542 16.3327C13.6542 16.3327 13.4686 15.9669 13.4237 15.6986C13.3948 15.5265 13.366 15.2518 13.366 15.2518M12.7607 14.7474C12.7607 14.7474 12.8258 14.5341 12.9337 14.4592C13.0201 14.3993 13.1931 14.3872 13.1931 14.3872M13.6542 14.1134C13.6542 14.1134 13.7369 13.8366 13.8848 13.7819C13.9745 13.7487 14.1298 13.7819 14.1298 13.7819M14.6053 13.436C14.6053 13.436 14.5895 13.2036 14.6774 13.1046C14.7442 13.0293 14.908 12.9893 14.908 12.9893" stroke="#87D09B" stroke-width="0.237494"/>
<path d="M21.5041 11.6589C21.4745 11.6727 21.436 11.6912 21.3898 11.7126C21.2748 11.766 21.1121 11.8413 20.9221 11.9294C20.0839 12.3181 18.717 12.95 18.507 13.0378C18.3567 13.1007 18.2387 13.1326 18.1057 13.1785C17.9748 13.2236 17.8436 13.2791 17.6935 13.3816C17.5225 13.4984 17.4309 13.6418 17.3508 13.7605C17.27 13.8802 17.1991 13.9781 17.0676 14.0535C16.9692 14.1098 16.8232 14.1573 16.6945 14.1912C16.6318 14.2077 16.5757 14.2198 16.5353 14.2283C16.5246 14.2164 16.5122 14.2026 16.4982 14.1873C16.4472 14.1309 16.3762 14.053 16.298 13.9656C16.1413 13.7902 15.9557 13.5789 15.8351 13.4324C15.6641 13.2244 15.5727 13.0784 15.466 12.9275C15.3587 12.7758 15.242 12.6296 15.0295 12.4392C14.7359 12.1762 14.4253 11.9236 14.1281 11.7253C13.8333 11.5287 13.5409 11.3786 13.2863 11.3308C13.1257 11.3007 12.9981 11.3193 12.8781 11.3533C12.8206 11.3696 12.7623 11.3904 12.7072 11.4089C12.6508 11.4279 12.5934 11.4463 12.5305 11.4617C12.287 11.521 12.0817 11.6267 11.9045 11.7C11.7232 11.7749 11.554 11.8247 11.3449 11.8044C11.0154 11.7726 10.8398 11.6211 10.7443 11.4832C10.7014 11.4212 10.675 11.3597 10.6574 11.3113C10.7187 11.2928 10.8011 11.2684 10.8928 11.238C11.0875 11.1736 11.3322 11.0844 11.5168 10.991C11.6371 10.9301 11.724 10.8674 11.8029 10.8123C11.8815 10.7573 11.9546 10.708 12.0578 10.6628C12.2435 10.5816 12.3985 10.5495 12.5607 10.53C12.7155 10.5115 12.9108 10.5021 13.1242 10.4695C13.4918 10.4133 13.6687 10.3544 14.0139 10.3552C14.4386 10.3563 14.7757 10.5709 15.1486 10.782C15.5122 10.9878 15.9097 11.1879 16.4074 11.0574C16.615 11.0029 16.7428 10.923 16.8557 10.8347C16.9699 10.7453 17.0486 10.6671 17.1877 10.5837C17.4317 10.4375 17.6295 10.3378 17.8312 10.2312C18.0327 10.1248 18.2344 10.0131 18.4767 9.84448C19.3145 9.26167 20.3752 8.46683 21.0441 7.95972C21.2336 7.8161 21.3911 7.69461 21.5041 7.60815V11.6589Z" fill="#E7FFE8" stroke="#87D09B" stroke-width="0.237494"/>
<path d="M20.9724 7.86524C21.3647 7.56785 21.6227 7.3689 21.6227 7.3689V11.7355C21.6227 11.7355 21.3528 11.8609 20.9724 12.0373M20.9724 7.86524C20.3037 8.37226 19.2447 9.16542 18.4091 9.74674C17.9352 10.0764 17.6217 10.1849 17.1265 10.4817C16.8318 10.6584 16.7547 10.8439 16.3772 10.9429C15.4818 11.1776 14.9394 10.2389 14.0138 10.2367C13.6564 10.2359 13.4592 10.2981 13.1059 10.352C12.676 10.4177 12.4091 10.3794 12.0107 10.5538C11.7816 10.654 11.6861 10.7723 11.463 10.8852C11.1104 11.0637 10.5119 11.2311 10.5119 11.2311C10.5119 11.2311 10.5984 11.8517 11.3333 11.9229C11.8081 11.9688 12.0948 11.6899 12.5582 11.577C12.8307 11.5106 12.9888 11.3956 13.2644 11.4473C13.7255 11.5337 14.368 12.0062 14.9505 12.5281C15.3602 12.8952 15.3936 13.0833 15.7431 13.5081C15.9877 13.8054 16.4924 14.3583 16.4924 14.3583C16.4924 14.3583 16.901 14.2858 17.1265 14.1566C17.4409 13.9765 17.4613 13.6835 17.7606 13.4792C18.0377 13.2901 18.2437 13.2772 18.5532 13.1478C18.7659 13.0588 20.1362 12.425 20.9724 12.0373M20.9724 7.86524V12.0373" stroke="#87D09B" stroke-width="0.237494"/>
<path d="M11.0175 11.4043C10.8151 11.3901 10.5275 11.2458 10.5275 11.2458L11.3057 10.972C11.3057 10.972 11.4849 10.899 11.5939 10.9576C11.6784 11.003 11.7525 11.1449 11.7525 11.1449C11.7525 11.1449 11.3211 11.4258 11.0175 11.4043Z" fill="white" stroke="#87D09B" stroke-width="0.237494"/>
<path d="M16.6224 11.822C16.6224 11.822 16.8172 12.15 16.7809 12.3697C16.7348 12.6487 16.2909 12.9029 16.2909 12.9029M16.2909 12.9029L15.2678 12.9605M16.2909 12.9029C16.2909 12.9029 16.5896 12.9029 16.7809 12.9029C16.9106 12.9029 17.1844 13.0182 17.1844 13.0182" stroke="#87D09B" stroke-width="0.237494"/>
<path d="M9.758 15.2654L9.78632 15.2839H10.4162L10.4348 15.2771H10.4357C10.4365 15.2768 10.4379 15.2767 10.4396 15.2761C10.4432 15.275 10.4491 15.2734 10.4562 15.2712C10.4706 15.2669 10.4917 15.2605 10.5178 15.2537C10.5704 15.2399 10.6429 15.2235 10.7219 15.2126C10.8013 15.2018 10.8842 15.1974 10.9592 15.2048C11.0351 15.2124 11.094 15.2312 11.134 15.2605C11.1854 15.2982 11.24 15.3761 11.2853 15.4578C11.3066 15.4962 11.3243 15.5314 11.3361 15.5574C11.342 15.5703 11.3458 15.5816 11.3488 15.5886C11.3502 15.592 11.352 15.5948 11.3527 15.5964V15.5974L11.3537 15.5984L11.3947 15.7029L11.5021 15.6667L11.5051 15.6658C11.5078 15.6649 11.5121 15.6626 11.5178 15.6609C11.529 15.6574 11.5458 15.6527 11.5666 15.6472C11.6083 15.6362 11.6655 15.6236 11.7277 15.615C11.7907 15.6063 11.8556 15.6023 11.9133 15.6082C11.9718 15.6141 12.0142 15.629 12.0412 15.6492C12.1039 15.6961 12.1446 15.7408 12.1701 15.7869C12.195 15.8319 12.209 15.8856 12.2092 15.9578C12.2093 16.0017 12.1842 16.0687 12.1457 16.1375C12.128 16.169 12.1103 16.1969 12.0969 16.2166C12.0902 16.2263 12.084 16.234 12.0803 16.239C12.0786 16.2412 12.0772 16.2428 12.0764 16.2439L12.0754 16.2449C12.0745 16.246 12.0734 16.2484 12.0715 16.2507C12.0675 16.2555 12.0616 16.2625 12.0539 16.2712C12.0384 16.2888 12.0163 16.3127 11.9904 16.3376C11.9347 16.3914 11.8758 16.4357 11.8312 16.45C11.6295 16.5143 11.4288 16.408 11.3078 16.1882C11.2932 16.1616 11.278 16.1186 11.2658 16.0759L11.2482 16.0056V16.0046L11.2267 15.9031L11.1232 15.9109L11.1203 15.9119C11.118 15.912 11.1143 15.9116 11.1096 15.9119C11.0999 15.9124 11.0854 15.9133 11.0676 15.9138C11.0316 15.9148 10.9816 15.9154 10.926 15.9128C10.8096 15.9074 10.6861 15.8898 10.6076 15.8513C10.5225 15.8096 10.4286 15.7127 10.3498 15.613C10.312 15.5652 10.2799 15.5199 10.258 15.4871C10.2473 15.4711 10.2392 15.4579 10.2336 15.449C10.2307 15.4445 10.2281 15.4405 10.2267 15.4382L10.2258 15.4363L10.2248 15.4353L10.1838 15.3669L10.1047 15.3787L10.1017 15.3796C10.0997 15.3799 10.0968 15.3801 10.093 15.3806C10.0843 15.3818 10.071 15.3839 10.0549 15.3855C10.0223 15.3887 9.9772 15.3915 9.92792 15.3914C9.82166 15.3911 9.72321 15.3751 9.6701 15.3396C9.64232 15.3209 9.61327 15.2875 9.58612 15.238C9.56786 15.2047 9.55275 15.167 9.53925 15.1287L9.758 15.2654Z" fill="white" stroke="#87D09B" stroke-width="0.237494"/>
<path d="M10.1233 15.4964C10.1233 15.4964 9.77406 15.552 9.60453 15.4387C9.40542 15.3058 9.35956 14.8767 9.35956 14.8767L9.8207 15.1649H10.3971M10.1233 15.4964L10.3971 15.1649M10.1233 15.4964C10.1233 15.4964 10.334 15.8489 10.5557 15.9575C10.7594 16.0574 11.1321 16.0296 11.1321 16.0296M10.3971 15.1649C10.3971 15.1649 10.95 14.9785 11.2042 15.1649C11.3514 15.2729 11.4635 15.554 11.4635 15.554M11.1321 16.0296C11.1321 16.0296 11.1612 16.1678 11.2042 16.2458C11.3425 16.4972 11.5937 16.6501 11.867 16.5628C12.0119 16.5166 12.1697 16.3178 12.1697 16.3178C12.1697 16.3178 12.3285 16.1113 12.3282 15.9575C12.3278 15.7788 12.2552 15.6611 12.112 15.554C11.9093 15.4023 11.4635 15.554 11.4635 15.554M11.1321 16.0296C11.1897 16.0296 11.3771 15.7125 11.4635 15.554" stroke="#87D09B" stroke-width="0.237494"/>
<path d="M11.377 16.0446C11.4347 15.9293 11.4959 15.814 11.55 15.7419C11.6488 15.6101 11.8659 15.5631 12.0111 15.6411C12.1464 15.7138 12.184 15.9581 12.112 16.0878C11.9977 16.2935 11.9681 16.3181 11.8825 16.3895L11.8814 16.3904C11.8122 16.4481 11.6586 16.4128 11.55 16.3472C11.4371 16.279 11.341 16.1166 11.377 16.0446Z" fill="#E7FFE8" stroke="#87D09B" stroke-width="0.237494"/>
<path d="M10.4105 15.569C10.4682 15.4537 10.515 15.3816 10.569 15.3095C10.6679 15.1777 10.9139 15.1973 11.059 15.2752C11.1943 15.3479 11.2896 15.5257 11.2175 15.6554C11.1027 15.862 11.1022 15.8572 11.0158 15.9293C10.9466 15.9869 10.7286 15.9462 10.62 15.8805C10.5071 15.8124 10.3745 15.641 10.4105 15.569Z" fill="#E7FFE8" stroke="#87D09B" stroke-width="0.237494"/>
<path d="M10.0069 15.2517C9.88571 15.2034 9.64667 15.2229 9.64667 15.2229C9.64667 15.2229 9.69369 15.3807 9.77636 15.4247C9.85585 15.467 10.14 15.4944 10.1078 15.367C10.0932 15.309 10.0796 15.2807 10.0069 15.2517Z" fill="white" stroke="#87D09B" stroke-width="0.237494"/>
</g>
<defs>
<clipPath id="clip0_60_367">
<rect width="18.5246" height="10.2123" fill="white" transform="translate(3.32831 6.8938)"/>
</clipPath>
</defs>
</svg>
