<svg width="24" height="24" viewBox="0 0 24 24" fill="none" xmlns="http://www.w3.org/2000/svg">
<circle cx="12" cy="12" r="12" fill="#D2FAFF"/>
<g clip-path="url(#clip0_60_334)">
<path d="M11.8402 11.5233C14.2157 13.9661 15.5298 13.9661 15.5298 13.9661C15.5298 13.9661 10.7725 16.031 7.88092 17.1672C7.54397 17.2995 7.35968 17.2278 7.22398 17.0998C7.08776 16.9713 6.95918 16.7965 7.13956 16.409C8.167 14.2019 10.4924 8.69287 10.4924 8.69287C10.4924 8.69287 10.5766 10.2597 11.8402 11.5233Z" stroke="#00B2C7" stroke-width="0.474989"/>
<path d="M14.1134 10.5292C13.0699 9.38503 10.9127 7.88417 10.5589 8.54123C10.205 9.19829 11.2832 11.1189 12.3278 12.0624C13.2147 12.8633 14.9897 14.1081 15.5793 13.9661C16.2869 13.7958 15.0875 11.5974 14.1134 10.5292Z" stroke="#00B2C7" stroke-width="0.474989"/>
<path d="M15.7449 11.5399C16.4403 11.3617 17.3456 11.4556 17.5812 11.4556C17.7313 11.4556 18.0205 11.5518 18.0562 11.4061C18.0927 11.2575 17.9361 11.1346 17.7866 11.1018C17.2476 10.9839 16.4002 10.9575 15.5457 11.2029C14.7705 11.4256 13.9002 11.8811 13.7261 12.1801C13.6547 12.3028 13.6689 12.3584 13.7262 12.4442C13.8257 12.5932 14.1612 12.298 14.1612 12.298C14.1612 12.298 15.0806 11.7101 15.7449 11.5399Z" fill="#FBB9BF"/>
<path d="M13.5443 8.48095C13.1312 9.06809 12.3818 9.58459 12.2026 9.73766C12.0885 9.8351 11.8061 9.94976 11.8736 10.0838C11.9423 10.2205 12.1413 10.2122 12.2762 10.14C12.7626 9.8797 13.4242 9.34945 13.9146 8.6078C14.3594 7.93501 14.7253 7.0234 14.6635 6.68307C14.6381 6.54333 14.5912 6.51026 14.492 6.48226C14.3195 6.43359 14.2561 6.87594 14.2561 6.87594C14.2561 6.87594 13.9388 7.92016 13.5443 8.48095Z" fill="#FBB9BF"/>
<path d="M13.6758 16.072C13.6315 15.8044 13.8426 15.5354 14.1139 15.5329C14.3698 15.5304 14.5734 15.7487 14.5687 16.0046C14.5642 16.2558 14.3651 16.463 14.1139 16.4595C13.8855 16.4562 13.7132 16.2973 13.6758 16.072Z" fill="#7FC3F7"/>
<path d="M8.77935 13.6959C8.73499 13.4282 8.94612 13.1593 9.21738 13.1568C9.47328 13.1543 9.67691 13.3726 9.67226 13.6285C9.6677 13.8797 9.46858 14.0869 9.21738 14.0834C8.98901 14.0801 8.81668 13.9212 8.77935 13.6959Z" fill="#E5FF00"/>
<path d="M11.6504 16.9327C11.6061 16.6651 11.8172 16.3962 12.0885 16.3936C12.3444 16.3911 12.548 16.6094 12.5434 16.8653C12.5388 17.1165 12.3397 17.3237 12.0885 17.3202C11.8601 17.317 11.6878 17.158 11.6504 16.9327Z" fill="#FA90B0"/>
<path d="M16.8751 15.7453C16.8307 15.4777 17.0418 15.2088 17.3131 15.2062C17.569 15.2038 17.7726 15.4221 17.768 15.6779C17.7634 15.9291 17.5643 16.1364 17.3131 16.1328C17.0847 16.1296 16.9124 15.9706 16.8751 15.7453Z" fill="#FA90B0"/>
<path d="M15.4512 10.3609C15.4069 10.0933 15.618 9.82439 15.8893 9.8218C16.1452 9.81935 16.3488 10.0377 16.3441 10.2935C16.3396 10.5447 16.1405 10.752 15.8893 10.7484C15.6609 10.7452 15.4886 10.5862 15.4512 10.3609Z" fill="#FBC900"/>
<path d="M5.71294 14.5579C5.66859 14.2903 5.87971 14.0214 6.15097 14.0188C6.40688 14.0164 6.61051 14.2347 6.60586 14.4906C6.60129 14.7417 6.40218 14.949 6.15097 14.9454C5.92261 14.9422 5.75028 14.7832 5.71294 14.5579Z" fill="#E5FF00"/>
<path d="M16.4961 12.4835C16.4518 12.2159 16.6629 11.9469 16.9342 11.9444C17.1901 11.9419 17.3937 12.1602 17.3891 12.4161C17.3845 12.6673 17.1854 12.8745 16.9342 12.871C16.7058 12.8677 16.5335 12.7088 16.4961 12.4835Z" fill="#7FC3F7"/>
<path d="M10.7559 6.95308C10.7515 6.68184 10.9999 6.44699 11.2686 6.4844C11.5221 6.5197 11.6913 6.76563 11.649 7.01803C11.6075 7.26579 11.38 7.44145 11.1321 7.4009C10.9067 7.36404 10.7596 7.18144 10.7559 6.95308Z" fill="#7FC3F7"/>
<path d="M7.96228 8.08151C7.96224 8.20024 7.96221 8.31896 7.72475 8.31896C7.54512 8.31896 7.57623 8.09546 7.57635 7.88359C7.57647 7.66473 7.62289 7.40368 7.71114 7.20972C7.89645 6.80243 8.14179 6.71789 8.60405 6.73811C9.37165 6.77168 9.55569 7.77346 9.51382 8.54064C9.46323 9.46724 9.29475 9.93896 9.0926 10.9161C9.05633 11.0914 8.8662 11.34 8.68829 11.3205C8.5123 11.3011 8.61067 10.9528 8.65454 10.7813C8.83983 10.0569 8.99102 9.42775 9.0926 8.54064C9.16012 7.95098 8.97682 7.13149 8.43726 7.13149C7.96254 7.13149 7.96234 7.86165 7.96228 8.0811V8.08151Z" fill="#FBB9BF"/>
<path d="M6.99648 12.0344C6.93496 11.6632 7.22778 11.2903 7.604 11.2866C7.95892 11.2833 8.24133 11.586 8.23489 11.9409C8.22855 12.2893 7.95239 12.5767 7.604 12.5718C7.28727 12.5673 7.04827 12.3469 6.99648 12.0344Z" fill="#00B2C7"/>
<path d="M14.8793 7.77265C14.8178 7.40148 15.1106 7.02853 15.4868 7.02493C15.8417 7.02153 16.1242 7.3243 16.1177 7.67919C16.1114 8.02756 15.8352 8.31501 15.4868 8.31008C15.1701 8.30558 14.9311 8.08515 14.8793 7.77265Z" fill="#E5FF00"/>
</g>
<defs>
<clipPath id="clip0_60_334">
<rect width="12.5872" height="11.1622" fill="white" transform="translate(5.70703 6.41895)"/>
</clipPath>
</defs>
</svg>
