<svg width="24" height="24" viewBox="0 0 24 24" fill="none" xmlns="http://www.w3.org/2000/svg">
<circle cx="12" cy="12" r="12" fill="#FFF3B1"/>
<g clip-path="url(#clip0_60_439)">
<path d="M12.9961 13.4025C13.4987 13.0679 13.8803 12.5805 14.0844 12.0123C14.2885 11.444 14.3044 10.8252 14.1296 10.2472C13.9548 9.66931 13.5987 9.16297 13.1139 8.80309C12.6291 8.44321 12.0413 8.2489 11.4375 8.2489C10.8337 8.2489 10.246 8.44321 9.76117 8.80309C9.27635 9.16297 8.92022 9.66931 8.74544 10.2472C8.57066 10.8252 8.5865 11.444 8.79063 12.0123C8.99476 12.5805 9.37633 13.0679 9.87893 13.4025C8.96978 13.7376 8.19335 14.3577 7.66549 15.1702C7.63775 15.2114 7.61848 15.2578 7.6088 15.3065C7.59912 15.3553 7.59923 15.4054 7.60912 15.4541C7.61901 15.5028 7.63848 15.5491 7.6664 15.5902C7.69432 15.6313 7.73013 15.6665 7.77176 15.6936C7.81338 15.7208 7.85999 15.7394 7.90887 15.7484C7.95775 15.7573 8.00793 15.7565 8.05648 15.7459C8.10504 15.7354 8.15101 15.7152 8.19172 15.6867C8.23243 15.6582 8.26707 15.6219 8.29362 15.5799C8.63411 15.0562 9.10003 14.6258 9.64907 14.3279C10.1981 14.03 10.8129 13.874 11.4375 13.874C12.0622 13.874 12.6769 14.03 13.226 14.3279C13.775 14.6258 14.2409 15.0562 14.5814 15.5799C14.6364 15.6616 14.7214 15.7184 14.818 15.7381C14.9145 15.7577 15.0149 15.7385 15.0974 15.6846C15.18 15.6308 15.238 15.5467 15.259 15.4504C15.2799 15.3541 15.2622 15.2535 15.2096 15.1702C14.6817 14.3577 13.9053 13.7376 12.9961 13.4025ZM9.37502 11.0625C9.37502 10.6546 9.49599 10.2559 9.72262 9.91668C9.94925 9.5775 10.2714 9.31315 10.6482 9.15704C11.0251 9.00094 11.4398 8.96009 11.8399 9.03967C12.24 9.11926 12.6075 9.31569 12.8959 9.60413C13.1844 9.89258 13.3808 10.2601 13.4604 10.6602C13.54 11.0603 13.4991 11.475 13.343 11.8518C13.1869 12.2287 12.9226 12.5508 12.5834 12.7774C12.2442 13.0041 11.8454 13.125 11.4375 13.125C10.8907 13.1244 10.3665 12.9069 9.9798 12.5203C9.59314 12.1336 9.37564 11.6094 9.37502 11.0625ZM19.2253 15.6891C19.142 15.7434 19.0406 15.7624 18.9433 15.7419C18.846 15.7215 18.7608 15.6632 18.7064 15.5799C18.3663 15.0559 17.9005 14.6253 17.3513 14.3276C16.8022 14.0298 16.1872 13.8742 15.5625 13.875C15.4631 13.875 15.3677 13.8355 15.2974 13.7652C15.227 13.6949 15.1875 13.5995 15.1875 13.5C15.1875 13.4006 15.227 13.3052 15.2974 13.2349C15.3677 13.1646 15.4631 13.125 15.5625 13.125C15.8663 13.1248 16.1662 13.0574 16.4409 12.9278C16.7155 12.7981 16.9582 12.6094 17.1515 12.3751C17.3448 12.1408 17.484 11.8667 17.5591 11.5724C17.6341 11.2781 17.6433 10.9709 17.5859 10.6726C17.5285 10.3744 17.4059 10.0925 17.2269 9.84707C17.0479 9.60168 16.8169 9.39886 16.5504 9.25309C16.2839 9.10732 15.9886 9.0222 15.6854 9.00382C15.3822 8.98544 15.0787 9.03425 14.7966 9.14676C14.7506 9.16665 14.7011 9.17711 14.651 9.17753C14.6008 9.17796 14.5512 9.16833 14.5048 9.14923C14.4585 9.13012 14.4165 9.10192 14.3812 9.0663C14.346 9.03068 14.3182 8.98835 14.2996 8.94182C14.281 8.89529 14.2719 8.8455 14.2729 8.79539C14.2738 8.74529 14.2848 8.69588 14.3052 8.6501C14.3255 8.60431 14.3549 8.56307 14.3915 8.52882C14.428 8.49457 14.4711 8.46799 14.5181 8.45067C15.1638 8.19316 15.882 8.18389 16.5341 8.42466C17.1862 8.66542 17.7261 9.13915 18.0495 9.75446C18.373 10.3698 18.4571 11.0831 18.2856 11.7567C18.1142 12.4304 17.6993 13.0167 17.1211 13.4025C18.0303 13.7376 18.8067 14.3577 19.3346 15.1702C19.3889 15.2535 19.4079 15.355 19.3874 15.4523C19.3669 15.5496 19.3086 15.6348 19.2253 15.6891Z" fill="#B09400"/>
</g>
<defs>
<clipPath id="clip0_60_439">
<rect width="12" height="12" fill="white" transform="translate(7.5 6)"/>
</clipPath>
</defs>
</svg>
