<svg width="24" height="24" viewBox="0 0 24 24" fill="none" xmlns="http://www.w3.org/2000/svg">
<circle cx="12" cy="12" r="12" fill="#F5FFD3"/>
<g clip-path="url(#clip0_60_361)">
<path d="M9.56381 9.08916V7.96297C9.56381 7.56948 9.88281 7.25049 10.2763 7.25049H13.7251C14.1186 7.25049 14.4376 7.56948 14.4376 7.96297V9.08916M9.56381 9.08916H14.4376M9.56381 9.08916H7.73615M14.4376 9.08916H16.2653M7.73615 9.08916H5.70711C5.31362 9.08916 4.99463 9.40815 4.99463 9.80163V16.0378C4.99463 16.4313 5.31362 16.7503 5.70711 16.7503H7.73615M7.73615 9.08916V16.7503M16.2653 9.08916H18.2943C18.6878 9.08916 19.0068 9.40815 19.0068 9.80163V16.0378C19.0068 16.4313 18.6878 16.7503 18.2943 16.7503H16.2653M16.2653 9.08916V16.7503M7.73615 16.7503H16.2653" stroke="#9AC900" stroke-width="0.474989"/>
</g>
<defs>
<clipPath id="clip0_60_361">
<rect width="14.4872" height="9.97477" fill="white" transform="translate(4.75635 7.0127)"/>
</clipPath>
</defs>
</svg>
